<svg version="1.2" baseProfile="tiny-ps" xmlns="http://www.w3.org/2000/svg" viewBox="0 0 32 32" width="32" height="32">
	<title>fa-google-plus</title>
	<style>
		tspan { white-space:pre }
		.shp0 { fill: #f3f3f3 } 
	</style>
	<path id="fa-google-plus" class="shp0" d="M14.35 14.16C14.65 13.78 15.01 13.41 15.44 13.05C15.87 12.7 16.29 12.31 16.71 11.88C17.13 11.46 17.49 10.9 17.79 10.21C18.09 9.52 18.24 8.74 18.24 7.88C18.24 6.79 18.01 5.83 17.55 4.99C17.08 4.15 16.4 3.35 15.49 2.6L17.89 2.6L20.42 1.01L12.76 1.01C11.39 1.01 10.06 1.2 8.77 1.59C7.49 1.97 6.37 2.56 5.43 3.35C4.66 4 4.05 4.79 3.61 5.71C3.17 6.64 2.95 7.59 2.95 8.58C2.95 10.36 3.57 11.82 4.82 12.98C6.06 14.14 7.58 14.72 9.39 14.72C9.66 14.72 10.07 14.7 10.64 14.65C10.38 15.24 10.25 15.75 10.25 16.18C10.25 16.67 10.34 17.11 10.53 17.5C10.72 17.88 11.01 18.32 11.41 18.83C8.07 19.04 5.6 19.65 4 20.63C3.1 21.18 2.37 21.87 1.83 22.7C1.28 23.53 1.01 24.43 1.01 25.4C1.01 26.26 1.24 27.04 1.69 27.76C2.39 28.92 3.43 29.74 4.83 30.24C6.23 30.74 7.74 30.99 9.35 30.99C11.3 30.99 13.12 30.64 14.81 29.95C16.51 29.26 17.8 28.18 18.68 26.72C19.27 25.72 19.56 24.68 19.56 23.6C19.56 22.67 19.37 21.81 18.98 21.04C18.58 20.28 18.11 19.65 17.56 19.17C17.01 18.69 16.46 18.25 15.91 17.85C15.35 17.44 14.88 17.04 14.49 16.62C14.09 16.21 13.9 15.78 13.9 15.35C13.9 14.94 14.05 14.55 14.35 14.16ZM9.45 13.15C8.91 12.84 8.45 12.44 8.08 11.95C7.71 11.45 7.39 10.9 7.12 10.28C6.86 9.66 6.67 9.04 6.55 8.42C6.43 7.81 6.36 7.22 6.36 6.67C6.36 5.46 6.65 4.49 7.23 3.79C7.53 3.39 7.93 3.07 8.43 2.84C8.92 2.61 9.43 2.49 9.94 2.49C10.72 2.49 11.44 2.73 12.08 3.23C12.73 3.72 13.25 4.34 13.63 5.09C14.02 5.84 14.31 6.62 14.52 7.42C14.73 8.23 14.83 8.98 14.83 9.68C14.83 10.9 14.51 11.86 13.86 12.54C13.54 12.87 13.14 13.13 12.65 13.32C12.16 13.52 11.69 13.62 11.22 13.62C10.59 13.62 10 13.47 9.45 13.15ZM8.92 29.09C8.16 28.91 7.43 28.65 6.74 28.3C6.05 27.94 5.49 27.44 5.06 26.8C4.63 26.16 4.42 25.42 4.42 24.58C4.42 23.87 4.59 23.23 4.92 22.67C5.25 22.12 5.66 21.67 6.17 21.33C6.68 21 7.27 20.72 7.95 20.5C8.63 20.29 9.28 20.14 9.92 20.05C10.56 19.97 11.2 19.93 11.85 19.93C12.24 19.93 12.53 19.94 12.73 19.96C12.76 19.99 12.98 20.14 13.39 20.43C13.8 20.72 14.06 20.9 14.16 20.97C14.25 21.04 14.48 21.22 14.82 21.49C15.17 21.77 15.41 21.98 15.53 22.12C15.65 22.25 15.83 22.46 16.07 22.75C16.31 23.03 16.47 23.28 16.57 23.49C16.66 23.71 16.75 23.96 16.83 24.25C16.92 24.54 16.96 24.83 16.96 25.13C16.96 25.88 16.79 26.53 16.46 27.1C16.12 27.66 15.67 28.1 15.12 28.41C14.56 28.73 13.96 28.96 13.3 29.12C12.65 29.27 11.97 29.35 11.26 29.35C10.46 29.35 9.69 29.26 8.92 29.09ZM26.11 9.66L24.18 9.66L24.18 13.57L20.3 13.57L20.3 15.51L24.18 15.51L24.18 19.46L26.11 19.46L26.11 15.51L30.01 15.51L30.01 13.57L26.11 13.57L26.11 9.66Z" />
</svg>